<svg
  xmlns="http://www.w3.org/2000/svg"
  viewBox="0 0 212.6 212.6"
  width="100"
  height="100"
  focusable="false"
  aria-hidden="true">
  <path
    d="M212.6 126V86.9l-23.9-4c-1.8-6.7-4.4-12.9-7.5-18.2l14.2-19.5-27.5-28L148 31c-5.8-3.1-12-5.8-18.2-7.5l-4-23.5h-39l-4 24c-6.6 1.8-12.4 4.4-18.2 7.5L45.1 17.7 17.2 45.2l14.2 19.5c-3.1 5.8-5.8 12-7.5 18.6L0 86.9V126l23.9 4c1.8 6.7 4.4 12.4 7.5 18.2l-14.2 20 27.5 27.5 19.9-14.2c5.8 3.1 12 5.8 18.6 7.5l4 23.5h39l4-24c6.2-1.8 12.4-4.4 18.2-7.5l19.9 14.2 27.5-27.5-14.2-20c3.1-5.8 5.8-11.5 7.5-18.2l23.5-3.6Zm-106.3 21.4c-22.6 0-40.7-18.2-40.7-40.8s18.6-40.8 40.7-40.8S147 84 147 106.6s-18.2 40.8-40.7 40.8Z"
    fill="#7f7f7f" />
  <circle cx="106.3" cy="106.3" r="70.9" fill="#1f1f1f" />
  <path
    d="M122.7 52c-.6-.2-1.7-.5-2.4-.7-.4 0-.7-.2-1.1-.3-.7-.2-2-.4-2.7-.6-.4 0-.7-.1-1.1-.2-.8-.1-2-.3-2.8-.4-.4 0-.7 0-1.1-.1-.8 0-2-.2-2.8-.2h-5c-.8 0-2 .1-2.8.2-.4 0-.7 0-1.1.1-.8 0-2 .3-2.8.4-.4 0-.7.1-1.1.2-.8.1-2 .4-2.7.6-.4 0-.7.2-1.1.3-.7.2-1.9.5-2.7.8-.6.2-1.1 1-1.1 1.8v104.9c0 .8.6 1.6 1.3 1.8.6.2 1.7.5 2.4.7.4 0 .7.2 1.1.3.7.2 2 .4 2.7.6.4 0 .7.1 1.1.2.8.1 2 .3 2.8.4.4 0 .7 0 1.1.1.8 0 2 .2 2.8.2h5c.8 0 2-.1 2.8-.2.4 0 .7 0 1.1-.1.8 0 2-.3 2.8-.4.4 0 .7-.1 1.1-.2.8-.1 2-.4 2.7-.6.4 0 .7-.2 1.1-.3.7-.2 1.9-.5 2.7-.8.6-.2 1.1-1 1.1-1.8V53.9c0-.8-.6-1.6-1.3-1.8Z"
    fill="#1fdf1f" />
  <path
    d="M49.6 106.3c0 1.6 0 3.1.2 4.7.1 1.6.3 3.1.6 4.6.3 1.5.6 3.1 1 4.6.4 1.5.8 3 1.3 4.5s1.1 2.9 1.7 4.4c.6 1.4 1.3 2.8 2.1 4.2.7 1.4 1.5 2.7 2.4 4 .9 1.3 1.8 2.6 2.7 3.8l3 3.6c1.1 1.1 2.2 2.3 3.3 3.3 1.1 1.1 2.3 2.1 3.6 3 1.2 1 2.5 1.9 3.8 2.7 1.3.9 2.7 1.7 4 2.4l4.2 2.1c.8.3 1.5-.1 1.5-1V55.4c0-.9-.7-1.4-1.5-1-1.4.6-2.8 1.3-4.2 2.1-1.4.7-2.7 1.5-4 2.4-1.3.9-2.6 1.8-3.8 2.7l-3.6 3c-1.1 1.1-2.3 2.2-3.3 3.3-1.1 1.1-2.1 2.3-3 3.6-1 1.2-1.9 2.5-2.7 3.8-.9 1.3-1.7 2.7-2.4 4l-2.1 4.2c-.6 1.4-1.2 2.9-1.7 4.4-.5 1.5-1 3-1.3 4.5-.4 1.5-.7 3-1 4.6-.3 1.5-.5 3.1-.6 4.6-.1 1.6-.2 3.1-.2 4.7Z"
    fill="#ff1f1f" />
  <path
    d="M163 106.3c0-1.6 0-3.1-.2-4.7-.1-1.6-.3-3.1-.6-4.6-.3-1.5-.6-3.1-1-4.6-.4-1.5-.8-3-1.3-4.5s-1.1-2.9-1.7-4.4c-.6-1.4-1.3-2.8-2.1-4.2-.7-1.4-1.5-2.7-2.4-4-.9-1.3-1.8-2.6-2.7-3.8l-3-3.6c-1.1-1.1-2.2-2.3-3.3-3.3-1.1-1.1-2.3-2.1-3.6-3-1.2-1-2.5-1.9-3.8-2.7-1.3-.9-2.7-1.7-4-2.4l-4.2-2.1c-.8-.3-1.5.1-1.5 1v101.8c0 .9.7 1.4 1.5 1 1.4-.6 2.8-1.3 4.2-2.1 1.4-.7 2.7-1.5 4-2.4 1.3-.9 2.6-1.8 3.8-2.7l3.6-3c1.1-1.1 2.3-2.2 3.3-3.3 1.1-1.1 2.1-2.3 3-3.6 1-1.2 1.9-2.5 2.7-3.8.9-1.3 1.7-2.7 2.4-4l2.1-4.2c.6-1.4 1.2-2.9 1.7-4.4.5-1.5 1-3 1.3-4.5.4-1.5.7-3 1-4.6.3-1.5.5-3.1.6-4.6.1-1.6.2-3.1.2-4.7Z"
    fill="#1f7fdf" />
</svg>
